<?xml version="1.0" standalone="no"?>
<!DOCTYPE svg PUBLIC "-//W3C//DTD SVG 20010904//EN"
 "http://www.w3.org/TR/2001/REC-SVG-20010904/DTD/svg10.dtd">
<svg version="1.0" xmlns="http://www.w3.org/2000/svg"
 width="676.000000pt" height="676.000000pt" viewBox="0 0 676.000000 676.000000"
 preserveAspectRatio="xMidYMid meet">
<metadata>
Created by potrace 1.11, written by Peter Selinger 2001-2013
</metadata>
<g transform="translate(0.000000,676.000000) scale(0.100000,-0.100000)"
fill="#000000" stroke="none">
<path d="M5332 6747 c-13 -6 -30 -23 -37 -37 -21 -38 -85 -176 -85 -183 0 -3
-14 -29 -30 -57 -17 -28 -26 -49 -20 -45 5 3 -8 -20 -29 -52 -21 -32 -44 -69
-51 -83 -7 -14 -26 -41 -41 -61 -22 -28 -26 -38 -16 -48 9 -10 9 -11 -3 -7
-10 4 -31 -15 -62 -57 -26 -34 -68 -84 -92 -111 -25 -27 -42 -54 -39 -59 3 -6
2 -7 -4 -4 -12 7 -66 -49 -59 -62 3 -5 0 -8 -8 -7 -11 1 -76 -52 -178 -146
-17 -16 -40 -28 -52 -29 -11 0 -30 -2 -41 -5 -11 -2 -33 -5 -48 -6 -16 -1 -30
-5 -33 -9 -2 -4 -14 -5 -26 -1 -18 4 -20 2 -14 -14 6 -15 5 -17 -5 -6 -15 14
-53 17 -44 3 3 -6 -4 -8 -16 -6 -24 5 -38 15 -21 15 7 0 12 7 12 15 0 8 9 19
20 25 11 6 18 15 15 19 -3 5 2 12 11 15 8 3 12 11 8 17 -4 7 -3 9 3 6 6 -4 21
9 34 28 13 19 28 35 33 35 4 0 6 7 3 15 -4 8 -1 17 5 21 7 4 8 3 4 -4 -4 -7
-5 -12 -1 -12 13 0 22 46 11 59 -8 11 -8 13 1 8 8 -5 9 0 1 20 -6 16 -26 36
-46 46 -33 17 -34 17 -29 0 6 -16 5 -16 -5 -2 -10 15 -18 14 -80 -12 -37 -15
-68 -26 -68 -23 0 2 -13 -2 -30 -11 -16 -8 -33 -15 -37 -16 -5 0 -39 -9 -78
-21 -38 -12 -77 -23 -85 -24 -8 -2 -16 -8 -18 -14 -2 -5 -7 -8 -12 -5 -9 6
-105 -26 -170 -56 -25 -12 -47 -21 -50 -21 -6 0 -108 -56 -135 -74 -29 -20
-47 -18 -36 4 20 37 41 104 36 113 -4 5 -1 9 5 9 7 0 10 6 7 14 -3 8 -2 16 4
18 5 2 11 12 14 23 2 11 16 51 30 88 14 37 25 76 25 87 0 32 -21 67 -47 79
-33 15 -56 14 -47 -1 6 -10 5 -10 -7 -1 -12 9 -21 8 -47 -9 -17 -11 -29 -25
-25 -31 3 -5 1 -7 -5 -3 -6 3 -22 -4 -36 -16 -14 -13 -46 -38 -71 -57 -39 -29
-44 -36 -33 -50 11 -14 11 -14 -4 -3 -14 11 -24 7 -70 -34 -79 -70 -156 -144
-197 -188 -20 -21 -43 -46 -52 -55 -9 -9 -37 -43 -63 -76 -26 -33 -50 -65 -55
-71 -9 -11 -55 -81 -78 -119 -7 -11 -17 -31 -23 -45 -6 -13 -14 -27 -18 -30
-10 -7 -34 -71 -35 -92 -1 -9 -5 -14 -9 -12 -4 3 -8 -4 -8 -14 0 -11 -7 -22
-15 -26 -12 -4 -14 0 -9 22 4 15 11 35 16 45 6 11 5 17 -3 17 -8 0 -8 4 -1 13
10 12 21 52 37 132 12 65 17 145 16 265 -1 168 0 154 -16 249 -8 46 -15 88
-15 93 0 5 -5 6 -12 2 -6 -4 -8 -3 -5 3 8 13 -13 93 -25 93 -5 0 -7 4 -4 9 5
7 -14 64 -44 136 -8 17 -14 34 -14 38 -1 4 -8 12 -16 17 -8 5 -12 10 -7 10 24
0 -179 325 -204 325 -4 0 -11 4 -16 9 -5 5 -3 6 5 2 6 -4 12 -3 12 2 0 14 -26
33 -34 24 -4 -4 -6 -1 -4 7 2 9 -9 19 -25 25 -23 8 -36 7 -65 -10 -22 -12 -36
-27 -36 -37 1 -9 -2 -14 -7 -11 -5 2 -9 -26 -9 -63 -2 -113 -5 -163 -10 -163
-5 0 -12 -61 -14 -127 -1 -22 -4 -39 -8 -36 -8 4 -9 -8 -11 -69 -1 -16 -5 -28
-11 -28 -5 0 -7 -3 -4 -6 4 -3 2 -20 -3 -37 -6 -18 -12 -39 -14 -47 -12 -55
-65 -250 -74 -273 -6 -16 -8 -33 -5 -39 4 -6 2 -8 -3 -5 -6 4 -13 -2 -16 -13
-3 -11 -2 -18 2 -16 4 3 -3 -17 -17 -44 -13 -27 -25 -60 -26 -74 0 -13 -5 -22
-10 -18 -5 3 -7 -4 -4 -16 3 -12 3 -20 -1 -19 -3 1 -7 0 -8 -3 -1 -3 -15 -36
-32 -73 -17 -37 -27 -66 -22 -63 4 3 8 -1 8 -8 0 -8 -6 -12 -14 -9 -7 3 -13
-1 -13 -9 0 -8 -6 -28 -14 -44 -47 -94 -85 -187 -81 -194 3 -5 -1 -12 -8 -17
-12 -8 -77 -130 -77 -146 0 -5 4 -6 9 -2 5 3 12 1 15 -4 3 -4 -4 -8 -17 -7
-13 1 -21 -4 -20 -11 2 -7 -2 -13 -7 -13 -6 0 -10 -9 -10 -20 0 -11 -4 -20 -8
-20 -13 0 -33 -50 -26 -62 4 -6 3 -8 -2 -5 -9 5 -138 -234 -134 -249 1 -4 -3
-10 -8 -13 -18 -11 -92 -163 -85 -174 3 -7 3 -9 -2 -5 -4 4 -16 -9 -27 -28
-16 -30 -17 -39 -6 -52 11 -15 11 -15 -4 -4 -11 9 -18 10 -23 2 -3 -5 -3 -10
1 -10 4 0 0 -8 -8 -17 -8 -10 -23 -36 -32 -58 -10 -22 -35 -75 -57 -118 -21
-43 -39 -84 -39 -92 0 -8 -5 -15 -11 -15 -6 0 -9 -7 -5 -15 3 -8 2 -15 -3 -15
-5 0 -18 -23 -30 -51 -20 -50 -20 -76 1 -63 7 4 8 2 4 -4 -4 -6 -13 -9 -21 -5
-14 5 -17 1 -19 -29 -1 -7 -4 -15 -8 -19 -14 -10 -59 -151 -54 -166 4 -8 1
-11 -5 -7 -7 4 -10 -4 -8 -22 3 -25 18 -50 59 -101 6 -7 10 -16 10 -20 0 -5
11 -20 25 -35 14 -15 25 -30 25 -33 0 -3 16 -29 35 -58 19 -28 35 -57 35 -64
0 -7 4 -13 9 -13 5 0 12 -13 16 -30 4 -17 10 -30 15 -30 4 0 11 -10 15 -22 9
-28 8 -24 25 -70 7 -20 16 -35 19 -33 3 1 7 -13 9 -32 1 -19 5 -40 9 -47 22
-34 5 -217 -26 -274 -6 -12 -8 -22 -4 -22 4 0 3 -4 -2 -8 -6 -4 -16 -18 -23
-32 -7 -14 -23 -43 -37 -65 -13 -22 -22 -46 -20 -53 3 -7 1 -11 -4 -8 -9 6
-41 -52 -41 -73 0 -6 -4 -11 -10 -11 -5 0 -10 -5 -10 -11 0 -5 4 -8 9 -4 5 3
13 0 17 -6 4 -7 3 -9 -2 -6 -17 10 -32 -7 -37 -45 -4 -28 1 -46 21 -75 14 -21
29 -39 34 -41 4 -2 8 -8 8 -14 0 -15 27 -38 35 -30 5 4 5 2 2 -4 -8 -15 129
-158 205 -214 34 -24 62 -39 69 -34 7 4 9 3 6 -3 -9 -14 56 -48 153 -81 65
-22 92 -26 202 -26 112 0 130 3 149 20 13 10 19 13 14 5 -6 -11 -4 -13 9 -8
10 4 22 7 27 7 6 0 8 4 5 9 -4 5 4 7 16 3 13 -3 19 -1 15 5 -5 7 1 9 15 5 16
-4 19 -2 13 8 -5 9 -4 11 3 6 14 -8 162 61 162 76 0 5 4 7 9 3 6 -3 14 3 20
12 6 10 11 15 11 10 0 -4 11 0 25 9 14 9 22 21 18 27 -3 6 -1 7 6 3 15 -10 43
13 34 27 -3 6 -1 7 5 3 20 -12 34 4 20 22 -11 15 -11 15 3 4 14 -11 25 -6 70
29 30 23 60 49 67 57 6 9 12 12 12 8 0 -5 7 -3 15 4 9 7 13 22 10 34 -3 12 -2
15 1 9 3 -7 10 -13 16 -13 19 0 88 62 82 72 -4 7 -2 8 5 4 8 -6 9 -12 2 -20
-8 -10 -3 -13 24 -14 19 -1 45 -6 56 -13 17 -9 20 -8 14 3 -4 7 3 2 14 -12 11
-14 21 -32 21 -40 0 -9 6 -22 13 -29 6 -8 7 -11 1 -8 -13 8 -67 -119 -58 -135
4 -6 3 -8 -3 -5 -5 3 -19 -11 -30 -31 -29 -55 -47 -86 -53 -92 -11 -11 -50
-70 -50 -75 0 -3 -14 -24 -31 -45 -17 -21 -28 -43 -24 -49 3 -7 1 -10 -6 -9
-7 2 -18 -7 -24 -19 -5 -13 -13 -23 -17 -23 -5 0 -8 -5 -8 -11 0 -6 -6 -17
-12 -24 -29 -32 -38 -45 -38 -51 0 -4 -10 -18 -22 -31 -19 -21 -20 -26 -8 -34
12 -9 12 -10 -2 -5 -21 6 -41 -24 -32 -51 4 -12 3 -14 -3 -6 -7 10 -13 8 -24
-5 -20 -23 -33 -53 -30 -70 1 -7 -4 -11 -11 -10 -8 2 -13 -6 -12 -19 0 -12 -4
-21 -9 -20 -12 2 -97 -144 -91 -155 3 -5 0 -8 -6 -8 -7 0 -9 -7 -6 -16 3 -8 2
-13 -2 -10 -9 5 -69 -122 -65 -136 2 -4 -1 -8 -6 -8 -5 0 -12 -14 -16 -30 -4
-17 -13 -43 -21 -58 -7 -16 -15 -37 -17 -48 -1 -10 -5 -23 -9 -29 -6 -10 -34
-102 -37 -120 -1 -5 -6 -24 -12 -42 -5 -17 -9 -38 -8 -45 1 -7 -1 -20 -4 -28
-13 -33 -24 -110 -16 -110 5 0 8 -3 8 -7 -4 -22 3 -41 21 -61 11 -12 20 -25
20 -29 0 -12 118 -133 172 -177 28 -22 52 -35 59 -30 7 4 9 3 6 -3 -4 -6 24
-31 66 -56 62 -39 100 -58 212 -108 50 -22 108 -38 118 -32 5 3 7 1 4 -4 -8
-12 50 -26 66 -16 6 3 7 1 3 -5 -4 -7 0 -12 11 -13 10 0 25 -2 33 -4 79 -21
101 -25 140 -32 72 -11 95 -9 92 5 -1 8 2 11 8 7 6 -3 8 -11 5 -16 -10 -15 10
-10 31 8 10 10 44 36 74 59 30 22 79 64 109 92 30 29 59 52 64 52 5 0 6 7 3
16 -3 8 -2 13 3 9 13 -7 43 24 35 37 -4 7 -2 8 4 4 13 -8 63 44 55 57 -3 6 -1
7 5 3 13 -8 54 43 45 57 -3 5 -1 7 5 3 8 -5 35 23 84 89 4 6 19 24 33 41 14
18 25 36 25 42 0 6 4 12 8 14 18 7 84 127 76 139 -4 7 -3 10 4 5 6 -3 16 3 22
14 6 11 7 20 3 20 -4 0 -3 4 4 8 12 7 56 98 57 117 1 6 7 16 13 23 7 7 16 25
19 40 3 15 15 50 25 78 11 28 21 67 22 86 2 28 6 34 19 30 10 -2 15 -9 12 -14
-3 -5 2 -19 13 -31 15 -18 15 -20 1 -8 -16 12 -16 8 2 -43 24 -69 39 -86 85
-90 40 -4 82 24 87 59 2 11 7 23 12 26 4 4 9 19 11 35 1 16 5 36 8 44 28 72
53 275 36 286 -4 2 -6 11 -3 18 3 8 1 31 -5 52 -6 22 -10 41 -10 44 0 3 -5 19
-11 35 -22 54 -29 86 -19 80 8 -6 13 8 10 28 0 4 4 7 9 7 5 0 9 5 7 11 -1 6 3
13 9 15 6 3 29 -52 53 -126 42 -131 63 -164 105 -172 29 -6 69 9 61 22 -3 6 1
7 9 4 14 -5 18 1 15 22 0 4 3 10 8 13 8 5 37 70 43 96 1 6 7 21 13 35 19 47
44 185 43 236 -1 32 3 51 10 51 7 0 11 -7 10 -15 -2 -8 6 -32 16 -53 10 -21
18 -45 18 -54 0 -8 4 -15 10 -15 5 0 9 -3 9 -8 -4 -24 2 -42 13 -36 7 4 8 3 4
-4 -4 -6 7 -40 23 -76 23 -49 37 -66 60 -74 35 -12 67 -9 64 6 -2 6 3 9 10 6
32 -12 69 88 43 117 -8 9 -8 10 0 6 8 -5 13 6 16 28 2 19 -1 37 -7 39 -6 3 -7
7 0 13 12 10 14 29 16 166 1 60 6 110 12 114 6 3 7 1 3 -5 -5 -8 4 -12 27 -12
34 0 85 39 70 53 -3 4 -1 7 6 7 8 0 10 18 7 62 -3 35 -5 69 -5 77 -1 8 -8 11
-18 7 -17 -6 -17 -5 -1 7 10 8 16 16 13 18 -4 5 -16 55 -17 77 -1 6 -4 12 -8
12 -3 0 -6 10 -7 22 -3 30 -24 79 -32 73 -9 -5 -7 32 2 41 4 4 7 3 7 -3 0 -5
18 -16 40 -23 22 -7 40 -16 40 -20 0 -11 71 -41 82 -34 6 4 8 3 5 -3 -10 -15
84 -55 116 -49 35 6 49 15 42 27 -4 5 0 9 8 9 8 0 18 7 21 16 3 9 2 12 -5 8
-6 -3 -6 2 1 13 10 16 5 33 -34 109 -25 49 -54 113 -64 141 -10 29 -21 51 -23
49 -2 -2 -5 6 -5 18 -4 55 -108 239 -172 303 -23 23 -38 31 -28 15 3 -5 -1 -9
-9 -9 -11 0 -12 4 -4 13 8 10 0 20 -33 43 -24 17 -48 35 -55 41 -7 5 -24 15
-38 22 -36 16 -31 29 10 25 21 -3 35 0 35 7 0 8 3 8 8 0 4 -6 23 -11 42 -11
41 -2 123 -14 129 -19 2 -2 10 1 18 7 8 7 13 8 13 1 0 -5 20 -12 45 -14 25 -2
45 1 45 6 0 5 3 6 7 3 11 -12 42 24 48 57 4 17 1 42 -4 56 -20 45 -87 145 -98
145 -6 0 -15 4 -20 9 -5 5 -3 6 5 2 6 -4 12 -4 12 0 0 8 -8 18 -64 78 -20 21
-36 43 -36 49 0 6 -3 7 -7 4 -3 -4 -13 2 -20 13 -8 11 -19 17 -25 14 -6 -4 -8
-2 -5 3 4 6 -6 19 -21 29 -15 10 -33 24 -40 31 -8 7 -18 11 -23 8 -5 -4 -9 -2
-9 3 0 12 -68 53 -91 55 -24 2 -12 24 17 31 13 4 24 11 24 16 0 6 6 10 13 10
6 0 29 13 49 29 30 22 35 30 25 41 -9 11 -8 11 7 0 16 -12 20 -12 30 1 6 8 30
29 54 48 23 18 39 38 36 43 -4 6 -3 8 3 5 5 -4 19 2 29 12 31 29 123 135 124
143 1 4 14 21 30 39 17 17 28 35 25 39 -3 4 2 10 10 14 8 3 15 12 15 19 0 8 6
20 14 26 16 13 61 102 58 114 -1 4 2 7 7 7 13 0 43 79 35 92 -4 6 -2 8 4 4 9
-6 33 45 31 68 0 5 4 12 9 15 14 9 72 202 58 194 -7 -4 -7 -2 1 8 7 9 19 48
28 88 8 40 18 77 21 82 3 5 -1 9 -8 9 -9 0 -10 2 -1 8 6 4 14 32 18 62 4 30 8
57 10 61 2 3 6 48 10 100 3 51 7 103 9 114 2 11 -4 29 -13 40 -15 18 -15 19 0
7 14 -11 17 -9 17 13 0 15 -5 22 -12 18 -8 -5 -8 -3 1 8 14 18 13 151 -1 161
-8 6 -8 8 0 8 6 0 12 12 12 26 0 17 -5 24 -14 20 -7 -3 -16 -1 -19 5 -4 5 -3
9 2 8 23 -4 29 4 27 34 -1 17 -3 32 -4 32 -1 0 -2 20 -3 45 -1 27 -7 50 -16
58 -9 8 -11 11 -4 8 7 -4 11 10 11 44 1 28 -3 48 -7 46 -5 -3 -7 7 -5 22 3 25
-9 126 -21 182 -3 14 -6 38 -7 53 -1 19 -5 26 -14 23 -7 -3 -16 -1 -19 5 -4 5
-1 8 7 7 19 -4 12 61 -10 86 -16 20 -16 20 2 6 18 -14 19 -13 12 5 -9 22 -16
50 -20 80 -10 68 -29 134 -36 130 -5 -3 -12 0 -16 6 -4 8 -3 9 4 5 8 -5 12 1
12 14 0 12 -4 18 -10 15 -5 -3 -7 0 -4 9 3 8 -2 43 -11 78 -9 35 -18 70 -20
78 -2 8 -4 15 -5 15 -1 0 -3 9 -5 19 -9 46 -80 77 -123 53z m-3025 -52 c0 -8
-4 -12 -9 -9 -5 3 -6 10 -3 15 9 13 12 11 12 -6z m3119 -11 c1 -9 0 -13 -4
-10 -3 4 -7 14 -8 22 -1 9 0 13 4 10 3 -4 7 -14 8 -22z m-3136 -20 c0 -8 -19
-13 -24 -6 -3 5 1 9 9 9 8 0 15 -2 15 -3z m3014 -2 c3 -5 -1 -9 -9 -9 -8 0
-12 4 -9 9 3 4 7 8 9 8 2 0 6 -4 9 -8z m162 -78 c1 -9 0 -13 -4 -10 -3 4 -7
14 -8 22 -1 9 0 13 4 10 3 -4 7 -14 8 -22z m-176 1 c0 -7 -30 -13 -34 -7 -3 4
4 9 15 9 10 1 19 0 19 -2z m176 -61 c1 -9 0 -13 -4 -10 -3 4 -7 14 -8 22 -1 9
0 13 4 10 3 -4 7 -14 8 -22z m-241 -63 c-9 -8 -36 -10 -30 -2 2 4 11 8 20 8 8
0 13 -3 10 -6z m281 -57 c1 -9 0 -13 -4 -10 -3 4 -7 14 -8 22 -1 9 0 13 4 10
3 -4 7 -14 8 -22z m-3240 -20 c1 -9 0 -13 -4 -10 -3 4 -7 14 -8 22 -1 9 0 13
4 10 3 -4 7 -14 8 -22z m324 0 c0 -8 -19 -13 -24 -6 -3 5 1 9 9 9 8 0 15 -2
15 -3z m2576 -46 c3 -4 -1 -5 -10 -4 -8 1 -18 5 -22 8 -3 4 1 5 10 4 8 -1 18
-5 22 -8z m-2516 -74 c0 -8 -19 -13 -24 -6 -3 5 1 9 9 9 8 0 15 -2 15 -3z
m2444 -42 c3 -5 -1 -9 -9 -9 -8 0 -12 4 -9 9 3 4 7 8 9 8 2 0 6 -4 9 -8z m451
-31 c3 -5 2 -12 -3 -15 -5 -3 -9 1 -9 9 0 17 3 19 12 6z m-3305 -7 c0 -8 -19
-13 -24 -6 -3 5 1 9 9 9 8 0 15 -2 15 -3z m1325 -83 c-9 -8 -36 -10 -30 -2 2
4 11 8 20 8 8 0 13 -3 10 -6z m60 0 c-9 -8 -36 -10 -30 -2 2 4 11 8 20 8 8 0
13 -3 10 -6z m40 -30 c3 -5 2 -12 -3 -15 -5 -3 -9 1 -9 9 0 17 3 19 12 6z
m-160 -10 c-9 -8 -36 -10 -30 -2 2 4 11 8 20 8 8 0 13 -3 10 -6z m1420 -21 c3
-5 1 -10 -4 -10 -6 0 -11 5 -11 10 0 6 2 10 4 10 3 0 8 -4 11 -10z m-2175 -20
c0 -5 -5 -10 -11 -10 -5 0 -7 5 -4 10 3 6 8 10 11 10 2 0 4 -4 4 -10z m2835 1
c-9 -8 -36 -10 -30 -2 2 4 11 8 20 8 8 0 13 -3 10 -6z m-2155 -15 c0 -3 -4 -8
-10 -11 -5 -3 -10 -1 -10 4 0 6 5 11 10 11 6 0 10 -2 10 -4z m216 -8 c3 -4 -1
-5 -10 -4 -8 1 -18 5 -22 8 -3 4 1 5 10 4 8 -1 18 -5 22 -8z m1260 -3 c-1 -8
-5 -17 -8 -21 -5 -4 -4 16 1 34 3 9 9 -1 7 -13z m-2706 -11 c0 -8 -19 -13 -24
-6 -3 5 1 9 9 9 8 0 15 -2 15 -3z m1205 -13 c3 -5 2 -12 -3 -15 -5 -3 -9 1 -9
9 0 17 3 19 12 6z m2186 -14 c-6 -8 -7 -18 -3 -22 4 -5 1 -5 -6 -1 -10 6 -10
11 -1 22 6 8 14 14 16 14 3 0 0 -6 -6 -13z m-2244 -22 c0 -8 -4 -12 -9 -9 -5
3 -6 10 -3 15 9 13 12 11 12 -6z m278 5 c3 -5 1 -10 -4 -10 -6 0 -11 5 -11 10
0 6 2 10 4 10 3 0 8 -4 11 -10z m680 1 c-9 -8 -36 -10 -30 -2 2 4 11 8 20 8 8
0 13 -3 10 -6z m109 1 c3 -5 -1 -9 -9 -9 -8 0 -12 4 -9 9 3 4 7 8 9 8 2 0 6
-4 9 -8z m-1664 -22 c0 -5 -5 -10 -11 -10 -5 0 -7 5 -4 10 3 6 8 10 11 10 2 0
4 -4 4 -10z m554 -18 c3 -5 -1 -9 -9 -9 -8 0 -12 4 -9 9 3 4 7 8 9 8 2 0 6 -4
9 -8z m1522 -4 c4 -7 4 -10 -1 -6 -4 4 -15 2 -24 -5 -14 -11 -14 -10 -2 6 16
20 18 21 27 5z m-1241 -27 c3 -5 2 -12 -3 -15 -5 -3 -9 1 -9 9 0 17 3 19 12 6z
m460 -10 c-9 -8 -36 -10 -30 -2 2 4 11 8 20 8 8 0 13 -3 10 -6z m-1875 -15 c0
-3 -4 -8 -10 -11 -5 -3 -10 -1 -10 4 0 6 5 11 10 11 6 0 10 -2 10 -4z m1055
-25 c3 -5 2 -12 -3 -15 -5 -3 -9 1 -9 9 0 17 3 19 12 6z m722 -6 c0 -8 -4 -12
-9 -9 -5 3 -6 10 -3 15 9 13 12 11 12 -6z m-382 -14 c3 -5 2 -12 -3 -15 -5 -3
-9 1 -9 9 0 17 3 19 12 6z m-365 -17 c0 -8 -19 -13 -24 -6 -3 5 1 9 9 9 8 0
15 -2 15 -3z m-50 -24 c0 -5 -5 -10 -11 -10 -5 0 -7 5 -4 10 3 6 8 10 11 10 2
0 4 -4 4 -10z m396 -16 c1 -9 0 -13 -4 -10 -3 4 -7 14 -8 22 -1 9 0 13 4 10 3
-4 7 -14 8 -22z m760 11 c-1 -8 -5 -17 -8 -21 -5 -4 -4 16 1 34 3 9 9 -1 7
-13z m-1201 -44 c3 -5 2 -12 -3 -15 -5 -3 -9 1 -9 9 0 17 3 19 12 6z m560 -10
c-9 -8 -36 -10 -30 -2 2 4 11 8 20 8 8 0 13 -3 10 -6z m902 -26 c0 -8 -4 -12
-9 -9 -5 3 -6 10 -3 15 9 13 12 11 12 -6z m-102 -4 c3 -5 2 -12 -3 -15 -5 -3
-9 1 -9 9 0 17 3 19 12 6z m42 -16 c0 -8 -4 -12 -9 -9 -5 3 -6 10 -3 15 9 13
12 11 12 -6z m-961 -20 c-1 -8 -5 -17 -8 -21 -5 -4 -4 16 1 34 3 9 9 -1 7 -13z
m681 -5 c-1 -21 -10 -18 -13 5 -1 8 2 15 6 15 5 0 8 -9 7 -20z m-1202 1 c3 -5
2 -12 -3 -15 -5 -3 -9 1 -9 9 0 17 3 19 12 6z m-959 -27 c1 -9 0 -13 -4 -10
-3 4 -7 14 -8 22 -1 9 0 13 4 10 3 -4 7 -14 8 -22z m1438 -23 c3 -5 -2 -15
-12 -22 -15 -12 -16 -12 -5 2 7 9 10 19 6 22 -3 4 -4 7 0 7 3 0 8 -4 11 -9z
m-1459 -40 c-9 -8 -36 -10 -30 -2 2 4 11 8 20 8 8 0 13 -3 10 -6z m3562 -16
c0 -8 -4 -12 -9 -9 -5 3 -6 10 -3 15 9 13 12 11 12 -6z m-2862 -14 c3 -5 2
-12 -3 -15 -5 -3 -9 1 -9 9 0 17 3 19 12 6z m2875 -27 c0 -8 -19 -13 -24 -6
-3 5 1 9 9 9 8 0 15 -2 15 -3z m20 -60 c0 -8 -19 -13 -24 -6 -3 5 1 9 9 9 8 0
15 -2 15 -3z m-2894 -40 c1 -9 0 -13 -4 -10 -3 4 -7 14 -8 22 -1 9 0 13 4 10
3 -4 7 -14 8 -22z m120 11 c-1 -8 -5 -17 -8 -21 -5 -4 -4 16 1 34 3 9 9 -1 7
-13z m-900 -17 c3 -4 -1 -5 -10 -4 -8 1 -18 5 -22 8 -3 4 1 5 10 4 8 -1 18 -5
22 -8z m-56 -114 c0 -8 -19 -13 -24 -6 -3 5 1 9 9 9 8 0 15 -2 15 -3z m795
-43 c-9 -8 -36 -10 -30 -2 2 4 11 8 20 8 8 0 13 -3 10 -6z m61 -43 c3 -4 -1
-5 -10 -4 -8 1 -18 5 -22 8 -3 4 1 5 10 4 8 -1 18 -5 22 -8z m2849 -78 c-3 -5
-12 -10 -18 -10 -7 0 -6 4 3 10 19 12 23 12 15 0z m-25 -116 c0 -8 -19 -13
-24 -6 -3 5 1 9 9 9 8 0 15 -2 15 -3z m-3845 -64 c3 -5 1 -10 -4 -10 -6 0 -11
5 -11 10 0 6 2 10 4 10 3 0 8 -4 11 -10z m-19 -62 c3 -4 -1 -5 -10 -4 -8 1
-18 5 -22 8 -3 4 1 5 10 4 8 -1 18 -5 22 -8z m-181 -317 c3 -5 2 -12 -3 -15
-5 -3 -9 1 -9 9 0 17 3 19 12 6z m-39 -86 c-1 -8 -5 -17 -8 -21 -5 -4 -4 16 1
34 3 9 9 -1 7 -13z m3928 -33 c3 -5 -1 -9 -9 -9 -8 0 -12 4 -9 9 3 4 7 8 9 8
2 0 6 -4 9 -8z m-3960 -40 c3 -5 -1 -9 -9 -9 -8 0 -12 4 -9 9 3 4 7 8 9 8 2 0
6 -4 9 -8z m-24 -58 c0 -8 -19 -13 -24 -6 -3 5 1 9 9 9 8 0 15 -2 15 -3z m-45
-13 c3 -5 2 -12 -3 -15 -5 -3 -9 1 -9 9 0 17 3 19 12 6z m3875 -127 c0 -8 -19
-13 -24 -6 -3 5 1 9 9 9 8 0 15 -2 15 -3z m-4014 -189 c-1 -8 -5 -17 -8 -21
-5 -4 -4 16 1 34 3 9 9 -1 7 -13z m3840 -17 c3 -4 -1 -5 -10 -4 -8 1 -18 5
-22 8 -3 4 1 5 10 4 8 -1 18 -5 22 -8z m-39 -33 c0 -8 -4 -12 -9 -9 -5 3 -6
10 -3 15 9 13 12 11 12 -6z m-3802 -4 c3 -5 2 -12 -3 -15 -5 -3 -9 1 -9 9 0
17 3 19 12 6z m-79 -186 c-1 -8 -5 -17 -8 -21 -5 -4 -4 16 1 34 3 9 9 -1 7
-13z m3604 -29 c0 -3 -4 -8 -10 -11 -5 -3 -10 -1 -10 4 0 6 5 11 10 11 6 0 10
-2 10 -4z m76 -42 c1 -9 0 -13 -4 -10 -3 4 -7 14 -8 22 -1 9 0 13 4 10 3 -4 7
-14 8 -22z m-3640 -146 c3 -4 -1 -5 -10 -4 -8 1 -18 5 -22 8 -3 4 1 5 10 4 8
-1 18 -5 22 -8z m41 -83 c0 -8 -4 -12 -9 -9 -5 3 -6 10 -3 15 9 13 12 11 12
-6z m37 -33 c3 -5 -1 -9 -9 -9 -8 0 -12 4 -9 9 3 4 7 8 9 8 2 0 6 -4 9 -8z
m3860 0 c3 -5 -1 -9 -9 -9 -8 0 -12 4 -9 9 3 4 7 8 9 8 2 0 6 -4 9 -8z m-3834
-56 c0 -3 -4 -8 -10 -11 -5 -3 -10 -1 -10 4 0 6 5 11 10 11 6 0 10 -2 10 -4z
m34 -12 c3 -8 2 -12 -4 -9 -6 3 -10 10 -10 16 0 14 7 11 14 -7z m3902 -59 c-1
-8 -5 -17 -8 -21 -5 -4 -4 16 1 34 3 9 9 -1 7 -13z m-199 -70 c0 -8 -4 -12 -9
-9 -5 3 -6 10 -3 15 9 13 12 11 12 -6z m-202 -4 c-9 -8 -36 -10 -30 -2 2 4 11
8 20 8 8 0 13 -3 10 -6z m409 1 c3 -5 -1 -9 -9 -9 -8 0 -12 4 -9 9 3 4 7 8 9
8 2 0 6 -4 9 -8z m-459 -22 c3 -6 -1 -7 -9 -4 -18 7 -21 14 -7 14 6 0 13 -4
16 -10z m95 -56 c0 -8 -19 -13 -24 -6 -3 5 1 9 9 9 8 0 15 -2 15 -3z m35 -33
c3 -5 2 -12 -3 -15 -5 -3 -9 1 -9 9 0 17 3 19 12 6z m45 -47 c0 -8 -19 -13
-24 -6 -3 5 1 9 9 9 8 0 15 -2 15 -3z m-3510 -40 c0 -8 -19 -13 -24 -6 -3 5 1
9 9 9 8 0 15 -2 15 -3z m-6 -82 c3 -5 -1 -9 -9 -9 -8 0 -12 4 -9 9 3 4 7 8 9
8 2 0 6 -4 9 -8z m3657 -19 c13 -16 12 -17 -3 -4 -17 13 -22 21 -14 21 2 0 10
-8 17 -17z m-3686 -93 c10 -11 16 -20 13 -20 -3 0 -13 9 -23 20 -10 11 -16 20
-13 20 3 0 13 -9 23 -20z m3742 -5 c0 -8 -4 -12 -9 -9 -5 3 -6 10 -3 15 9 13
12 11 12 -6z m-3800 -120 c0 -8 -4 -12 -9 -9 -5 3 -6 10 -3 15 9 13 12 11 12
-6z m-40 -97 c2 -17 0 -19 -7 -8 -5 8 -6 18 -4 22 8 12 10 10 11 -14z m3541
-53 c-3 -3 -9 2 -12 12 -6 14 -5 15 5 6 7 -7 10 -15 7 -18z m99 -10 c0 -8 -4
-12 -9 -9 -5 3 -6 10 -3 15 9 13 12 11 12 -6z m-3667 -1 c0 -8 -19 -13 -24 -6
-3 5 1 9 9 9 8 0 15 -2 15 -3z m3634 -42 c3 -5 -1 -9 -9 -9 -8 0 -12 4 -9 9 3
4 7 8 9 8 2 0 6 -4 9 -8z m350 0 c3 -5 -1 -9 -9 -9 -8 0 -12 4 -9 9 3 4 7 8 9
8 2 0 6 -4 9 -8z m41 -31 c3 -5 2 -12 -3 -15 -5 -3 -9 1 -9 9 0 17 3 19 12 6z
m-179 -13 c3 -4 -1 -5 -10 -4 -8 1 -18 5 -22 8 -3 4 1 5 10 4 8 -1 18 -5 22
-8z m-3902 -36 c3 -5 -1 -9 -9 -9 -8 0 -12 4 -9 9 3 4 7 8 9 8 2 0 6 -4 9 -8z
m4003 -37 c0 -8 -4 -12 -9 -9 -5 3 -6 10 -3 15 9 13 12 11 12 -6z m43 -1 c0
-8 -19 -13 -24 -6 -3 5 1 9 9 9 8 0 15 -2 15 -3z m-2625 -83 c-9 -8 -36 -10
-30 -2 2 4 11 8 20 8 8 0 13 -3 10 -6z m-1295 -37 c0 -8 -19 -13 -24 -6 -3 5
1 9 9 9 8 0 15 -2 15 -3z m1195 -33 c3 -5 2 -12 -3 -15 -5 -3 -9 1 -9 9 0 17
3 19 12 6z m2321 -87 c1 -9 0 -13 -4 -10 -3 4 -7 14 -8 22 -1 9 0 13 4 10 3
-4 7 -14 8 -22z m120 -69 c-1 -8 -5 -17 -8 -21 -5 -4 -4 16 1 34 3 9 9 -1 7
-13z m-2120 -17 c4 -7 4 -10 -1 -6 -4 4 -15 2 -24 -5 -14 -11 -14 -10 -2 6 16
20 18 21 27 5z m2004 6 c0 -8 -19 -13 -24 -6 -3 5 1 9 9 9 8 0 15 -2 15 -3z
m-3230 -40 c0 -8 -19 -13 -24 -6 -3 5 1 9 9 9 8 0 15 -2 15 -3z m587 -9 c0 -8
-4 -12 -9 -9 -5 3 -6 10 -3 15 9 13 12 11 12 -6z m2359 -31 c1 -9 0 -13 -4
-10 -3 4 -7 14 -8 22 -1 9 0 13 4 10 3 -4 7 -14 8 -22z m-2841 7 c3 -5 2 -12
-3 -15 -5 -3 -9 1 -9 9 0 17 3 19 12 6z m340 -10 c-9 -8 -36 -10 -30 -2 2 4
11 8 20 8 8 0 13 -3 10 -6z m-179 -37 c1 -9 0 -13 -4 -10 -3 4 -7 14 -8 22 -1
9 0 13 4 10 3 -4 7 -14 8 -22z m2680 -20 c1 -9 0 -13 -4 -10 -3 4 -7 14 -8 22
-1 9 0 13 4 10 3 -4 7 -14 8 -22z m64 -64 c0 -5 -5 -10 -11 -10 -5 0 -7 5 -4
10 3 6 8 10 11 10 2 0 4 -4 4 -10z m-85 -29 c3 -5 2 -12 -3 -15 -5 -3 -9 1 -9
9 0 17 3 19 12 6z m-1858 -16 c0 -8 -4 -12 -9 -9 -5 3 -6 10 -3 15 9 13 12 11
12 -6z m1999 -71 c1 -9 0 -13 -4 -10 -3 4 -7 14 -8 22 -1 9 0 13 4 10 3 -4 7
-14 8 -22z m-481 7 c3 -5 2 -12 -3 -15 -5 -3 -9 1 -9 9 0 17 3 19 12 6z m345
-11 c0 -5 -2 -10 -4 -10 -3 0 -8 5 -11 10 -3 6 -1 10 4 10 6 0 11 -4 11 -10z
m300 4 c0 -8 -19 -13 -24 -6 -3 5 1 9 9 9 8 0 15 -2 15 -3z m-564 -29 c-1 -8
-5 -17 -8 -21 -5 -4 -4 16 1 34 3 9 9 -1 7 -13z m-1681 -4 c3 -5 2 -12 -3 -15
-5 -3 -9 1 -9 9 0 17 3 19 12 6z m1922 -6 c0 -8 -4 -12 -9 -9 -5 3 -6 10 -3
15 9 13 12 11 12 -6z m-337 -19 c0 -3 -4 -8 -10 -11 -5 -3 -10 -1 -10 4 0 6 5
11 10 11 6 0 10 -2 10 -4z m530 0 c0 -2 -8 -10 -17 -17 -16 -13 -17 -12 -4 4
13 16 21 21 21 13z m134 -24 c3 -5 -1 -9 -9 -9 -8 0 -12 4 -9 9 3 4 7 8 9 8 2
0 6 -4 9 -8z m-128 -38 c1 -9 0 -13 -4 -10 -3 4 -7 14 -8 22 -1 9 0 13 4 10 3
-4 7 -14 8 -22z m119 7 c3 -5 2 -12 -3 -15 -5 -3 -9 1 -9 9 0 17 3 19 12 6z
m-79 -47 c1 -9 0 -13 -4 -10 -3 4 -7 14 -8 22 -1 9 0 13 4 10 3 -4 7 -14 8
-22z m-279 -39 c0 -8 -4 -12 -9 -9 -5 3 -6 10 -3 15 9 13 12 11 12 -6z m-161
-10 c-1 -8 -5 -17 -8 -21 -5 -4 -4 16 1 34 3 9 9 -1 7 -13z m-122 -113 c3 -5
-1 -9 -9 -9 -8 0 -12 4 -9 9 3 4 7 8 9 8 2 0 6 -4 9 -8z m-1797 -47 c0 -8 -4
-12 -9 -9 -5 3 -6 10 -3 15 9 13 12 11 12 -6z m1818 6 c-9 -8 -36 -10 -30 -2
2 4 11 8 20 8 8 0 13 -3 10 -6z m1 -83 c3 -4 -1 -5 -10 -4 -8 1 -18 5 -22 8
-3 4 1 5 10 4 8 -1 18 -5 22 -8z m-1886 -74 c0 -8 -19 -13 -24 -6 -3 5 1 9 9
9 8 0 15 -2 15 -3z m1665 -3 c-9 -8 -36 -10 -30 -2 2 4 11 8 20 8 8 0 13 -3
10 -6z m199 1 c2 -4 -5 -9 -17 -9 -17 -2 -19 0 -7 7 18 12 18 12 24 2z m-1929
-122 c3 -6 -1 -7 -9 -4 -18 7 -21 14 -7 14 6 0 13 -4 16 -10z m1650 1 c-9 -8
-36 -10 -30 -2 2 4 11 8 20 8 8 0 13 -3 10 -6z m249 1 c3 -5 -1 -9 -9 -9 -8 0
-12 4 -9 9 3 4 7 8 9 8 2 0 6 -4 9 -8z m-1930 -40 c3 -5 -1 -9 -9 -9 -8 0 -12
4 -9 9 3 4 7 8 9 8 2 0 6 -4 9 -8z m-38 -138 c1 -9 0 -13 -4 -10 -3 4 -7 14
-8 22 -1 9 0 13 4 10 3 -4 7 -14 8 -22z m1600 -109 c-1 -8 -5 -17 -8 -21 -5
-4 -4 16 1 34 3 9 9 -1 7 -13z m-40 -91 c1 -9 0 -13 -4 -10 -3 4 -7 14 -8 22
-1 9 0 13 4 10 3 -4 7 -14 8 -22z m-1640 -69 c-1 -8 -5 -17 -8 -21 -5 -4 -4
16 1 34 3 9 9 -1 7 -13z m1590 -17 c3 -4 -1 -5 -10 -4 -8 1 -18 5 -22 8 -3 4
1 5 10 4 8 -1 18 -5 22 -8z m-446 -112 c0 -2 -7 -7 -16 -10 -8 -3 -12 -2 -9 4
6 10 25 14 25 6z m297 -61 c0 -8 -4 -12 -9 -9 -5 3 -6 10 -3 15 9 13 12 11 12
-6z m-1363 -3 c3 -5 -1 -9 -9 -9 -8 0 -12 4 -9 9 3 4 7 8 9 8 2 0 6 -4 9 -8z
m121 -111 c3 -5 2 -12 -3 -15 -5 -3 -9 1 -9 9 0 17 3 19 12 6z m1086 -68 c13
-16 12 -17 -3 -4 -17 13 -22 21 -14 21 2 0 10 -8 17 -17z m-966 -12 c3 -5 2
-12 -3 -15 -5 -3 -9 1 -9 9 0 17 3 19 12 6z m125 -85 c0 -3 -4 -8 -10 -11 -5
-3 -10 -1 -10 4 0 6 5 11 10 11 6 0 10 -2 10 -4z m120 -42 c0 -8 -19 -13 -24
-6 -3 5 1 9 9 9 8 0 15 -2 15 -3z m236 -80 c1 -9 0 -13 -4 -10 -3 4 -7 14 -8
22 -1 9 0 13 4 10 3 -4 7 -14 8 -22z m64 -24 c0 -5 -2 -10 -4 -10 -3 0 -8 5
-11 10 -3 6 -1 10 4 10 6 0 11 -4 11 -10z"/>
</g>
</svg>
